<svg width="191" height="25" viewBox="0 0 191 25" fill="none" xmlns="http://www.w3.org/2000/svg">
<path d="M8.78919 2.06035L4.49242 15.9259H13.2779L8.94194 2.06035H8.78919V2.06035ZM1.4608 24.0377H0.301418C0.0272403 24.0377 -0.05893 23.8888 0.0389907 23.5912L7.47705 0.454453C7.55147 0.156774 7.72772 0.00793457 8.0019 0.00793457H9.76056C10.0073 0.00793457 10.1836 0.156774 10.2854 0.454453L17.7235 23.5912C17.7979 23.8888 17.7117 24.0377 17.461 24.0377H16.2664C16.0157 24.0377 15.8551 23.8888 15.7807 23.5912L13.7636 17.6102H3.97149L1.95432 23.5912C1.84857 23.8888 1.68798 24.0377 1.4608 24.0377Z" fill="#ffffff"/>
<path d="M31.5893 24.0374H26.8813C25.2598 24.0374 23.9829 23.5635 23.0507 22.6156C22.1145 21.6678 21.6484 20.3713 21.6484 18.7301V5.31108C21.6484 3.66601 22.1145 2.36954 23.0507 1.42559C23.9868 0.477716 25.2637 0.00378418 26.8813 0.00378418H31.5893C33.207 0.00378418 34.4878 0.477716 35.42 1.42559C36.3561 2.37346 36.8222 3.66601 36.8222 5.31108V7.14416C36.8222 7.44184 36.6851 7.59068 36.411 7.59068H35.3652C35.091 7.59068 34.9539 7.44184 34.9539 7.14416V5.3855C34.9539 4.19087 34.6484 3.27433 34.0374 2.63981C33.4263 2.00528 32.549 1.68802 31.4013 1.68802H27.0302C25.8825 1.68802 25.013 2.01312 24.4137 2.65939C23.8144 3.30959 23.5168 4.21829 23.5168 5.38942V18.6596C23.5168 19.8308 23.8144 20.7395 24.4137 21.3897C25.013 22.0359 25.8825 22.361 27.0302 22.361H31.4053C32.5529 22.361 33.4303 22.0438 34.0413 21.4092C34.6523 20.7747 34.9578 19.8582 34.9578 18.6635V16.9088C34.9578 16.6111 35.0949 16.4584 35.3691 16.4584H36.4149C36.6891 16.4584 36.8261 16.6072 36.8261 16.9088V18.7419C36.8261 20.387 36.36 21.6834 35.4239 22.6274C34.4878 23.5635 33.207 24.0374 31.5893 24.0374Z" fill="#ffffff"/>
<path d="M59.5476 0.00392065H61.5648C61.8155 0.00392065 61.9369 0.15276 61.9369 0.450439V23.5871C61.9369 23.8848 61.8115 24.0376 61.5648 24.0376H60.4798C60.2056 24.0376 60.0686 23.8887 60.0686 23.5871V2.87887H59.9197L53.3042 18.3895C53.1554 18.6637 52.9673 18.8008 52.7441 18.8008H51.5103C51.2596 18.8008 51.0873 18.6637 50.9854 18.3895L44.2563 2.8397H44.1075V23.5832C44.1075 23.8809 43.9821 24.0337 43.7354 24.0337H42.6504C42.3997 24.0337 42.2783 23.8848 42.2783 23.5832V0.446518C42.2783 0.148839 42.4037 0 42.6504 0H44.6676C44.8399 0 44.9535 0.0744226 45.0044 0.223262L52.0312 16.6309H52.1801L59.2069 0.223262C59.2617 0.0783394 59.3753 0.00392065 59.5476 0.00392065Z" fill="#ffffff"/>
<path d="M80.2168 24.0377H68.6661C68.4154 24.0377 68.29 23.8888 68.29 23.5912V0.454453C68.29 0.156774 68.4154 0.00793457 68.6661 0.00793457H80.2168C80.5145 0.00793457 80.6672 0.145025 80.6672 0.419203V1.2809C80.6672 1.55508 80.5184 1.69217 80.2168 1.69217H70.5344C70.2837 1.69217 70.1623 1.80576 70.1623 2.02902V10.6265C70.1623 10.8497 70.2876 10.9633 70.5344 10.9633H79.1671C79.4412 10.9633 79.5783 11.1004 79.5783 11.3746V12.2363C79.5783 12.5105 79.4412 12.6475 79.1671 12.6475H70.5344C70.2837 12.6475 70.1623 12.7611 70.1623 12.9844V22.0283C70.1623 22.2516 70.2876 22.3652 70.5344 22.3652H80.2168C80.5145 22.3652 80.6672 22.5023 80.6672 22.7765V23.6382C80.6672 23.9006 80.5184 24.0377 80.2168 24.0377Z" fill="#ffffff"/>
<path d="M108.179 24.0377H96.628C96.3773 24.0377 96.2559 23.8888 96.2559 23.5912V0.454453C96.2559 0.156774 96.3812 0.00793457 96.628 0.00793457H108.179C108.476 0.00793457 108.629 0.145025 108.629 0.419203V1.2809C108.629 1.55508 108.48 1.69217 108.179 1.69217H98.4963C98.2456 1.69217 98.1203 1.80576 98.1203 2.02902V10.6265C98.1203 10.8497 98.2456 10.9633 98.4963 10.9633H107.129C107.403 10.9633 107.54 11.1004 107.54 11.3746V12.2363C107.54 12.5105 107.403 12.6475 107.129 12.6475H98.4963C98.2456 12.6475 98.1203 12.7611 98.1203 12.9844V22.0283C98.1203 22.2516 98.2456 22.3652 98.4963 22.3652H108.179C108.476 22.3652 108.629 22.5023 108.629 22.7765V23.6382C108.625 23.9006 108.476 24.0377 108.179 24.0377Z" fill="#ffffff"/>
<path d="M112.099 4.97437H113.258C113.509 4.97437 113.67 5.12321 113.744 5.4248L118.754 21.946H118.903L123.873 5.4248C123.971 5.12713 124.135 4.97437 124.359 4.97437H125.553C125.828 4.97437 125.914 5.12321 125.816 5.4248L120.172 23.5911C120.097 23.8887 119.921 24.0376 119.647 24.0376H118.002C117.728 24.0376 117.54 23.8887 117.442 23.5911L111.797 5.4248C111.727 5.12321 111.825 4.97437 112.099 4.97437Z" fill="#ffffff"/>
<path d="M131.237 13.9831H140.548C140.771 13.9831 140.885 13.8695 140.885 13.6462V10.3208C140.885 9.14972 140.587 8.24493 139.988 7.6104C139.388 6.97588 138.515 6.65861 137.371 6.65861H134.418C133.27 6.65861 132.401 6.97588 131.801 7.6104C131.202 8.24493 130.904 9.14972 130.904 10.3208V13.6462C130.904 13.8695 131.014 13.9831 131.237 13.9831ZM142.079 24.0376H134.265C132.644 24.0376 131.367 23.5636 130.434 22.6158C129.502 21.6679 129.032 20.3714 129.032 18.7303V10.2817C129.032 8.63661 129.498 7.34014 130.434 6.39227C131.371 5.4444 132.647 4.97046 134.265 4.97046H137.481C139.098 4.97046 140.383 5.4444 141.331 6.39227C142.279 7.34014 142.753 8.63661 142.753 10.2817V15.0289C142.753 15.3266 142.604 15.4754 142.306 15.4754H131.241C131.018 15.4754 130.904 15.589 130.904 15.8122V18.6911C130.904 19.8622 131.202 20.767 131.801 21.4016C132.401 22.0361 133.27 22.3533 134.418 22.3533H142.079C142.353 22.3533 142.49 22.4904 142.49 22.7646V23.6263C142.49 23.9005 142.353 24.0376 142.079 24.0376Z" fill="#ffffff"/>
<path d="M149.255 24.0376H148.17C147.919 24.0376 147.798 23.8887 147.798 23.5911V5.4248C147.798 5.12713 147.923 4.97437 148.17 4.97437H149.255C149.529 4.97437 149.666 5.12321 149.666 5.4248V6.92103H149.815C150.512 5.62456 151.809 4.97829 153.704 4.97829H156.172C157.766 4.97829 159.023 5.45222 159.948 6.40009C160.868 7.34796 161.33 8.64444 161.33 10.2895V23.595C161.33 23.8926 161.205 24.0415 160.958 24.0415H159.873C159.599 24.0415 159.462 23.8926 159.462 23.595V10.3639C159.462 9.19279 159.164 8.28409 158.565 7.6339C157.966 6.98762 157.096 6.66252 155.949 6.66252H153.52C152.326 6.66252 151.382 6.97978 150.7 7.61431C150.015 8.24884 149.67 9.15362 149.67 10.3248V23.595C149.666 23.8887 149.529 24.0376 149.255 24.0376Z" fill="#ffffff"/>
<path d="M167.57 6.65864H165.29C165.016 6.65864 164.879 6.5333 164.879 6.28263V5.38567C164.879 5.11149 165.016 4.9744 165.29 4.9744H167.57C167.793 4.9744 167.907 4.86081 167.907 4.63755V1.60985C167.907 1.31217 168.044 1.16333 168.318 1.16333H169.403C169.677 1.16333 169.814 1.31217 169.814 1.60985V4.63755C169.814 4.86081 169.928 4.9744 170.151 4.9744H174.6C174.875 4.9744 175.012 5.11149 175.012 5.38567V6.28263C175.012 6.5333 174.875 6.65864 174.6 6.65864H170.151C169.928 6.65864 169.814 6.77223 169.814 6.99549V18.7695C169.814 19.9171 170.139 20.8023 170.785 21.4212C171.432 22.0439 172.344 22.3573 173.516 22.3573H174.973C175.247 22.3573 175.384 22.4944 175.384 22.7686V23.6303C175.384 23.9044 175.247 24.0415 174.973 24.0415H173.367C171.722 24.0415 170.402 23.5793 169.403 22.6589C168.404 21.7384 167.907 20.4655 167.907 18.8478V6.9994C167.907 6.76831 167.793 6.65864 167.57 6.65864Z" fill="#ffffff"/>
<path d="M185.884 24.0376H179.379C179.104 24.0376 178.967 23.9005 178.967 23.6263V22.7646C178.967 22.5139 179.104 22.3925 179.379 22.3925H185.696C187.941 22.3925 189.061 21.519 189.061 19.7761V18.8791C189.061 17.2615 188.364 16.2 186.965 15.7026L182.293 13.9087C181.024 13.4112 180.119 12.8237 179.582 12.15C179.046 11.4763 178.779 10.5441 178.779 9.34555C178.779 6.43143 180.385 4.97437 183.601 4.97437H189.656C189.931 4.97437 190.068 5.11146 190.068 5.38563V6.24733C190.068 6.49801 189.931 6.61944 189.656 6.61944H183.789C182.767 6.61944 181.999 6.84269 181.49 7.29313C180.981 7.73965 180.722 8.2645 180.722 8.86378V9.72157C180.722 10.4188 180.914 10.9671 181.302 11.3666C181.69 11.7661 182.281 12.103 183.076 12.3772L187.749 14.2455C189.045 14.6685 189.911 15.2991 190.346 16.1334C190.78 16.9677 191 18.1349 191 19.6272C191 21.1235 190.581 22.2319 189.746 22.9526C188.92 23.6772 187.631 24.0376 185.884 24.0376Z" fill="#ffffff"/>
</svg>
