<svg width="121" height="76" viewBox="0 0 121 76" fill="none" xmlns="http://www.w3.org/2000/svg">
<path d="M55.4349 3.55079L48.0058 27.5131H63.1842L55.6905 3.55079H55.4349V3.55079ZM42.7752 41.5301H40.7727C40.2988 41.5301 40.1474 41.2721 40.3211 40.7559L53.1744 0.774176C53.3035 0.258058 53.6037 0 54.0801 0H57.1148C57.5441 0 57.8468 0.258058 58.018 0.774176L70.8713 40.7559C71.0004 41.2721 70.849 41.5301 70.4197 41.5301H68.3528C67.921 41.5301 67.6431 41.2721 67.5141 40.7559L64.0253 30.4212H47.1026L43.6139 40.7559C43.4402 41.2721 43.1623 41.5301 42.7752 41.5301Z" fill="#ffffff"/>
<path d="M80.752 33.0688V40.756C80.752 41.2721 80.5361 41.5302 80.1069 41.5302H77.8464C77.3724 41.5302 77.1367 41.2721 77.1367 40.756V33.0688C77.1367 32.5949 77.3724 32.3591 77.8464 32.3591H80.1069C80.5361 32.3591 80.752 32.5949 80.752 33.0688Z" fill="#ffffff"/>
<path d="M5.56801 61.2246L2.84598 70.0085H8.41162L5.66478 61.2246H5.56801ZM0.925426 75.1473H0.19095C0.0172569 75.1473 -0.0373325 75.0531 0.0247009 74.862L4.73676 60.2047C4.7839 60.0162 4.89556 59.9219 5.06926 59.9219H6.18338C6.3397 59.9219 6.45136 60.0162 6.51588 60.2047L11.2279 74.862C11.2751 75.0506 11.2205 75.1473 11.0617 75.1473H10.3049C10.1461 75.1473 10.0443 75.0531 9.99719 74.862L8.7193 71.073H2.51596L1.23807 74.862C1.17108 75.0531 1.06934 75.1473 0.925426 75.1473Z" fill="#ffffff"/>
<path d="M20.0115 75.1474H17.0289C16.0017 75.1474 15.1927 74.8472 14.6022 74.2467C14.0091 73.6462 13.7139 72.8249 13.7139 71.7827V63.2817C13.7139 62.2395 14.0091 61.4182 14.6022 60.8177C15.1952 60.2172 16.0041 59.917 17.0289 59.917H20.0115C21.0363 59.917 21.8477 60.2172 22.4382 60.8177C23.0313 61.4182 23.3266 62.2395 23.3266 63.2817V64.443C23.3266 64.6315 23.2397 64.7258 23.066 64.7258H22.4035C22.2298 64.7258 22.143 64.6315 22.143 64.443V63.3288C22.143 62.572 21.9494 61.9914 21.5623 61.5894C21.1752 61.1874 20.6194 60.9864 19.8924 60.9864H17.1232C16.3962 60.9864 15.8453 61.1924 15.4657 61.6018C15.086 62.0137 14.8975 62.5894 14.8975 63.3313V71.7381C14.8975 72.48 15.086 73.0557 15.4657 73.4676C15.8453 73.877 16.3962 74.0829 17.1232 74.0829H19.8949C20.6219 74.0829 21.1777 73.882 21.5648 73.48C21.9519 73.078 22.1454 72.4974 22.1454 71.7406V70.6264C22.1454 70.4379 22.2323 70.3411 22.406 70.3411H23.0685C23.2422 70.3411 23.329 70.4354 23.329 70.6264V71.7877C23.329 72.8299 23.0338 73.6512 22.4407 74.2517C21.8477 74.8472 21.0363 75.1474 20.0115 75.1474Z" fill="#ffffff"/>
<path d="M37.7234 59.9217H39.0013C39.1601 59.9217 39.237 60.016 39.237 60.207V74.8643C39.237 75.0529 39.1576 75.1471 39.0013 75.1471H38.314C38.1403 75.1471 38.0534 75.0529 38.0534 74.8643V61.7455H37.9591L33.7682 71.5715C33.6739 71.7452 33.5548 71.8321 33.4133 71.8321H32.6317C32.4729 71.8321 32.3637 71.7452 32.2992 71.5715L28.0363 61.7206H27.942V74.8618C27.942 75.0504 27.8626 75.1447 27.7063 75.1447H27.0189C26.8601 75.1447 26.7832 75.0504 26.7832 74.8618V60.2045C26.7832 60.016 26.8626 59.9192 27.0189 59.9192H28.2968C28.406 59.9192 28.478 59.9663 28.5102 60.0606L32.9617 70.4549H33.056L37.5075 60.0606C37.5423 59.9688 37.6142 59.9217 37.7234 59.9217Z" fill="#ffffff"/>
<path d="M50.8179 75.1473H43.5004C43.3416 75.1473 43.2622 75.0531 43.2622 74.862V60.2047C43.2622 60.0162 43.3416 59.9219 43.5004 59.9219H50.8179C51.0065 59.9219 51.1032 60.0087 51.1032 60.1824V60.7283C51.1032 60.902 51.0089 60.9888 50.8179 60.9888H44.684C44.5252 60.9888 44.4483 61.0608 44.4483 61.2022V66.6488C44.4483 66.7902 44.5277 66.8622 44.684 66.8622H50.1529C50.3266 66.8622 50.4134 66.949 50.4134 67.1227V67.6686C50.4134 67.8423 50.3266 67.9291 50.1529 67.9291H44.684C44.5252 67.9291 44.4483 68.0011 44.4483 68.1425V73.8719C44.4483 74.0134 44.5277 74.0853 44.684 74.0853H50.8179C51.0065 74.0853 51.1032 74.1722 51.1032 74.3459V74.8918C51.1032 75.0605 51.0089 75.1473 50.8179 75.1473Z" fill="#ffffff"/>
<path d="M68.5317 75.1473H61.2142C61.0554 75.1473 60.9785 75.0531 60.9785 74.862V60.2047C60.9785 60.0162 61.0579 59.9219 61.2142 59.9219H68.5317C68.7203 59.9219 68.8171 60.0087 68.8171 60.1824V60.7283C68.8171 60.902 68.7228 60.9888 68.5317 60.9888H62.3978C62.239 60.9888 62.1596 61.0608 62.1596 61.2022V66.6488C62.1596 66.7902 62.239 66.8622 62.3978 66.8622H67.8667C68.0404 66.8622 68.1272 66.949 68.1272 67.1227V67.6686C68.1272 67.8423 68.0404 67.9291 67.8667 67.9291H62.3978C62.239 67.9291 62.1596 68.0011 62.1596 68.1425V73.8719C62.1596 74.0134 62.239 74.0853 62.3978 74.0853H68.5317C68.7203 74.0853 68.8171 74.1722 68.8171 74.3459V74.8918C68.8146 75.0605 68.7203 75.1473 68.5317 75.1473Z" fill="#ffffff"/>
<path d="M71.0156 63.0706H71.7501C71.9089 63.0706 72.0106 63.1648 72.0577 63.3534L75.2314 73.8197H75.3257L78.4745 63.3534C78.5365 63.1648 78.6407 63.0706 78.7822 63.0706H79.539C79.7127 63.0706 79.7673 63.1648 79.7052 63.3534L76.1296 74.8619C76.0825 75.0504 75.9708 75.1447 75.7971 75.1447H74.755C74.5813 75.1447 74.4622 75.0504 74.4001 74.8619L70.8245 63.3534C70.7799 63.1648 70.8419 63.0706 71.0156 63.0706Z" fill="#ffffff"/>
<path d="M83.1397 68.7774H89.0378C89.1792 68.7774 89.2512 68.7055 89.2512 68.564V66.4574C89.2512 65.7155 89.0626 65.1423 88.683 64.7403C88.3033 64.3383 87.75 64.1373 87.0254 64.1373H85.1545C84.4275 64.1373 83.8766 64.3383 83.497 64.7403C83.1173 65.1423 82.9288 65.7155 82.9288 66.4574V68.564C82.9288 68.7055 82.9982 68.7774 83.1397 68.7774ZM90.008 75.147H85.0577C84.0305 75.147 83.2215 74.8468 82.631 74.2463C82.0404 73.6458 81.7427 72.8245 81.7427 71.7823V66.4301C81.7427 65.3879 82.038 64.5666 82.631 63.9686C83.224 63.3681 84.0329 63.0679 85.0577 63.0679H87.0949C88.1197 63.0679 88.9336 63.3681 89.5341 63.9686C90.1346 64.5691 90.4348 65.3904 90.4348 66.4301V69.4375C90.4348 69.626 90.3405 69.7228 90.1519 69.7228H83.1421C83.0007 69.7228 82.9288 69.7948 82.9288 69.9362V71.76C82.9288 72.5019 83.1173 73.0751 83.497 73.4771C83.8766 73.8791 84.4275 74.08 85.1545 74.08H90.008C90.1817 74.08 90.2685 74.1669 90.2685 74.3406V74.8865C90.2685 75.0602 90.1817 75.147 90.008 75.147Z" fill="#ffffff"/>
<path d="M94.5539 75.1472H93.8666C93.7078 75.1472 93.6309 75.0529 93.6309 74.8619V63.3534C93.6309 63.1648 93.7103 63.0706 93.8666 63.0706H94.5539C94.7276 63.0706 94.8145 63.1648 94.8145 63.3534V64.3013H94.9087C95.3504 63.48 96.1717 63.0706 97.3727 63.0706H98.936C99.9459 63.0706 100.742 63.3708 101.328 63.9713C101.911 64.5718 102.204 65.3931 102.204 66.4328V74.8619C102.204 75.0504 102.124 75.1472 101.968 75.1472H101.281C101.107 75.1472 101.02 75.0529 101.02 74.8619V66.4799C101.02 65.738 100.832 65.1623 100.452 64.7504C100.072 64.341 99.5216 64.135 98.7945 64.135H97.2561C96.4993 64.135 95.9013 64.336 95.4695 64.738C95.0353 65.14 94.8169 65.7132 94.8169 66.4551V74.8619C94.8145 75.0529 94.7276 75.1472 94.5539 75.1472Z" fill="#ffffff"/>
<path d="M106.156 64.1349H104.712C104.538 64.1349 104.451 64.0555 104.451 63.8967V63.3284C104.451 63.1548 104.538 63.0679 104.712 63.0679H106.156C106.297 63.0679 106.369 62.996 106.369 62.8545V60.9364C106.369 60.7479 106.456 60.6536 106.63 60.6536H107.317C107.491 60.6536 107.578 60.7479 107.578 60.9364V62.8545C107.578 62.996 107.65 63.0679 107.791 63.0679H110.61C110.784 63.0679 110.87 63.1548 110.87 63.3284V63.8967C110.87 64.0555 110.784 64.1349 110.61 64.1349H107.791C107.65 64.1349 107.578 64.2068 107.578 64.3483V71.8072C107.578 72.5342 107.784 73.095 108.193 73.4895C108.602 73.8841 109.181 74.0826 109.923 74.0826H110.846C111.019 74.0826 111.106 74.1694 111.106 74.3431V74.889C111.106 75.0627 111.019 75.1495 110.846 75.1495H109.828C108.786 75.1495 107.95 74.8567 107.317 74.2736C106.684 73.6905 106.369 72.8841 106.369 71.8593V64.3532C106.369 64.2068 106.297 64.1349 106.156 64.1349Z" fill="#ffffff"/>
<path d="M117.759 75.147H113.638C113.464 75.147 113.377 75.0602 113.377 74.8865V74.3406C113.377 74.1843 113.464 74.1049 113.638 74.1049H117.64C119.062 74.1049 119.772 73.5515 119.772 72.4473V71.8791C119.772 70.8518 119.33 70.1819 118.444 69.8667L115.484 68.7303C114.68 68.4152 114.107 68.0429 113.767 67.6162C113.427 67.1894 113.258 66.5988 113.258 65.8395C113.258 63.9934 114.276 63.0679 116.313 63.0679H120.149C120.323 63.0679 120.41 63.1547 120.41 63.3284V63.8743C120.41 64.0331 120.323 64.11 120.149 64.11H116.432C115.784 64.11 115.298 64.2515 114.975 64.5368C114.653 64.8197 114.489 65.1522 114.489 65.5318V66.0752C114.489 66.5169 114.611 66.8643 114.856 67.1174C115.102 67.3705 115.477 67.5839 115.98 67.7576L118.941 68.9412C119.762 69.2092 120.31 69.6087 120.586 70.1372C120.861 70.6657 121 71.4052 121 72.3505C121 73.2984 120.735 74.0006 120.206 74.4572C119.682 74.9187 118.866 75.147 117.759 75.147Z" fill="#ffffff"/>
</svg>
